<?xml version="1.0" encoding="UTF-8" standalone="no"?>
<!DOCTYPE svg PUBLIC "-//W3C//DTD SVG 1.1//EN" "http://www.w3.org/Graphics/SVG/1.1/DTD/svg11.dtd"><svg width="100%"
  height="100%" viewBox="0 0 417 417" version="1.1" xmlns="http://www.w3.org/2000/svg"
  xmlns:xlink="http://www.w3.org/1999/xlink" xml:space="preserve" xmlns:serif="http://www.serif.com/"
  style="fill-rule:evenodd;clip-rule:evenodd;stroke-linejoin:round;stroke-miterlimit:2;">
  <path
    d="M208.333,30.661c98.061,-0 177.673,79.612 177.673,177.672c0,98.061 -79.612,177.673 -177.673,177.673c-98.06,0 -177.672,-79.612 -177.672,-177.673c-0,-98.06 79.612,-177.672 177.672,-177.672Zm-32.468,200.636c-6.62,-0 -11.738,-2.004 -15.353,-6.011c-3.615,-4.007 -5.422,-9.69 -5.422,-17.051c0,-7.099 1.797,-12.684 5.39,-16.757c3.593,-4.072 8.547,-6.108 14.862,-6.108c6.62,0 11.781,1.982 15.483,5.945c3.702,3.963 5.553,9.495 5.553,16.594c0,7.36 -1.796,13.098 -5.39,17.214c-3.593,4.116 -8.634,6.174 -15.123,6.174Zm43.378,-45.927c4.573,0 8.384,1.546 11.433,4.638c0.392,-2.569 1.698,-3.854 3.92,-3.854c2.7,0 4.05,1.307 4.05,3.92c0,0.435 -0.087,1.306 -0.261,2.613c-0.262,1.96 -0.392,3.288 -0.392,3.985c-0,0.784 0.043,1.372 0.13,1.764c0.088,1.394 0.131,2.178 0.131,2.352c0,1.132 -0.501,2.079 -1.502,2.842c-1.002,0.762 -2.287,1.143 -3.855,1.143c-2.526,-0 -4.05,-1.241 -4.573,-3.724c-0.523,-2.482 -1.274,-4.192 -2.254,-5.128c-0.98,-0.937 -2.537,-1.405 -4.671,-1.405c-2.831,0 -5.019,1.318 -6.565,3.953c-1.547,2.635 -2.32,6.369 -2.32,11.204c0,4.094 0.752,7.284 2.254,9.57c1.503,2.287 3.582,3.43 6.239,3.43c1.699,0 3.103,-0.49 4.214,-1.47c1.111,-0.98 1.666,-2.21 1.666,-3.691c-0,-1.829 -0.762,-2.744 -2.287,-2.744l-0.392,0c-0.174,0.044 -0.326,0.066 -0.457,0.066c-0.697,0.087 -1.089,0.13 -1.176,0.13c-0.871,0 -1.611,-0.381 -2.221,-1.143c-0.61,-0.762 -0.915,-1.709 -0.915,-2.842c0,-1.306 0.436,-2.352 1.307,-3.136c0.871,-0.784 2.003,-1.176 3.397,-1.176c0.915,0 2.297,0.12 4.148,0.36c1.851,0.239 3.256,0.359 4.214,0.359c1.437,0 3.027,-0.109 4.769,-0.327c1.394,-0.174 2.352,-0.261 2.875,-0.261c1.393,0 2.515,0.425 3.364,1.274c0.849,0.849 1.274,1.993 1.274,3.43c0,1.263 -0.305,2.319 -0.915,3.168c-0.609,0.85 -1.371,1.274 -2.286,1.274l-1.568,-0.13c-1.176,-0 -1.764,0.979 -1.764,2.939c0,0.828 0.022,1.699 0.065,2.614l0.131,2.809c0.044,0.958 0.065,1.872 0.065,2.743c0,2.919 -1.611,4.378 -4.834,4.378c-3.049,-0 -4.573,-1.067 -4.573,-3.202l0,-0.392c-3.005,2.396 -6.424,3.594 -10.257,3.594c-3.353,-0 -6.511,-0.882 -9.472,-2.646c-2.962,-1.764 -5.118,-4.062 -6.468,-6.893c-1.742,-3.614 -2.613,-7.817 -2.613,-12.608c-0,-7.317 1.698,-13.109 5.096,-17.378c3.397,-4.268 8.013,-6.402 13.849,-6.402Zm-106.486,4.965l5.422,23.845l5.684,-22.865c0.479,-1.916 1.012,-3.234 1.6,-3.952c0.588,-0.719 1.427,-1.078 2.515,-1.078c0.959,-0 2.418,0.109 4.377,0.326c1.96,0.218 3.441,0.327 4.443,0.327c1.045,0 3.636,-0.174 7.774,-0.523c1.176,-0.087 2.047,-0.13 2.613,-0.13c1.437,-0 2.592,0.424 3.463,1.274c0.871,0.849 1.306,2.014 1.306,3.495c0,1.219 -0.337,2.243 -1.012,3.07c-0.675,0.828 -1.514,1.241 -2.516,1.241c-0.392,0 -0.936,-0.076 -1.633,-0.228c-0.697,-0.153 -1.197,-0.229 -1.502,-0.229c-1.176,0 -1.764,1.459 -1.764,4.377l-0,18.096c-0,2.962 0.566,4.443 1.698,4.443c0.349,-0 0.871,-0.076 1.568,-0.229c0.697,-0.152 1.22,-0.228 1.568,-0.228c1.002,-0 1.851,0.413 2.548,1.241c0.697,0.827 1.045,1.851 1.045,3.07c0,1.481 -0.435,2.646 -1.306,3.495c-0.871,0.85 -2.026,1.274 -3.463,1.274c-0.827,0 -2.221,-0.13 -4.181,-0.392c-1.306,-0.174 -2.613,-0.261 -3.92,-0.261c-0.827,-0 -2.047,0.109 -3.658,0.327c-1.612,0.217 -2.831,0.326 -3.659,0.326c-1.306,0 -2.362,-0.435 -3.168,-1.306c-0.806,-0.871 -1.209,-2.026 -1.209,-3.463c0,-2.7 0.893,-4.05 2.679,-4.05c0.261,-0 0.457,0.022 0.588,0.065l0.457,0c0.174,0.044 0.283,0.065 0.327,0.065c0.697,0 1.11,-0.479 1.241,-1.437c0.044,-0.435 0.065,-1.176 0.065,-2.221l0,-24.629l-9.08,32.142c-0.784,2.787 -2.069,4.181 -3.855,4.181l-4.181,-0c-1.742,-0 -2.94,-1.241 -3.593,-3.724l-8.689,-32.599l0,24.629c0,2.047 0.196,3.201 0.588,3.463c0.131,0.13 0.37,0.195 0.719,0.195c0.087,0 0.218,-0.021 0.392,-0.065l0.392,0c0.13,-0.043 0.326,-0.065 0.588,-0.065c1.742,-0 2.613,1.328 2.613,3.985c-0,1.481 -0.392,2.657 -1.176,3.528c-0.784,0.871 -1.829,1.306 -3.136,1.306c-0.61,0 -1.393,-0.065 -2.352,-0.196c-1.219,-0.174 -1.981,-0.283 -2.286,-0.326c-0.915,-0.087 -1.96,-0.131 -3.136,-0.131c-1.481,-0 -2.722,0.065 -3.724,0.196c-2.7,0.348 -4.05,0.523 -4.05,0.523c-1.35,-0 -2.461,-0.458 -3.332,-1.372c-0.871,-0.915 -1.307,-2.069 -1.307,-3.463c0,-1.263 0.338,-2.297 1.013,-3.103c0.675,-0.806 1.535,-1.208 2.581,-1.208c0.348,-0 0.86,0.076 1.535,0.228c0.675,0.153 1.187,0.229 1.535,0.229c0.871,-0 1.416,-0.566 1.633,-1.699c0.087,-0.435 0.131,-1.35 0.131,-2.744l-0,-18.096c-0,-1.393 -0.044,-2.286 -0.131,-2.678c-0.217,-1.133 -0.762,-1.699 -1.633,-1.699c-0.348,0 -0.86,0.076 -1.535,0.229c-0.675,0.152 -1.209,0.228 -1.601,0.228c-1.001,0 -1.84,-0.413 -2.515,-1.241c-0.675,-0.827 -1.013,-1.851 -1.013,-3.07c0,-3.18 1.612,-4.769 4.835,-4.769c1.045,-0 2.787,0.109 5.226,0.326c2.439,0.218 4.268,0.327 5.488,0.327c1.96,0 4.007,-0.131 6.141,-0.392c1.437,-0.174 2.569,-0.261 3.397,-0.261c1.089,-0 1.851,0.261 2.286,0.784c0.436,0.522 0.85,1.611 1.242,3.266Zm139.804,31.489c0.871,-0 1.416,-0.566 1.633,-1.699c0.088,-0.435 0.131,-1.35 0.131,-2.744l0,-18.096c0,-1.393 -0.043,-2.286 -0.131,-2.678c-0.217,-1.133 -0.762,-1.699 -1.633,-1.699c-0.348,0 -0.86,0.076 -1.535,0.229c-0.675,0.152 -1.209,0.228 -1.601,0.228c-1.001,0 -1.84,-0.413 -2.515,-1.241c-0.675,-0.827 -1.012,-1.851 -1.012,-3.07c-0,-1.481 0.424,-2.646 1.274,-3.495c0.849,-0.85 1.992,-1.274 3.429,-1.274c0.654,-0 2.178,0.13 4.573,0.392c1.612,0.174 3.18,0.261 4.704,0.261c1.22,0 2.973,-0.109 5.259,-0.327c2.287,-0.217 3.8,-0.326 4.54,-0.326c3.18,-0 4.77,1.589 4.77,4.769c-0,1.219 -0.338,2.243 -1.013,3.07c-0.675,0.828 -1.514,1.241 -2.515,1.241c-0.349,0 -0.871,-0.076 -1.568,-0.228c-0.697,-0.153 -1.22,-0.229 -1.568,-0.229c-1.176,0 -1.764,1.459 -1.764,4.377l0,18.096c0,2.962 0.588,4.443 1.764,4.443c0.348,-0 0.871,-0.076 1.568,-0.229c0.697,-0.152 1.219,-0.228 1.568,-0.228c1.001,-0 1.84,0.413 2.515,1.241c0.675,0.827 1.013,1.851 1.013,3.07c-0,1.394 -0.425,2.548 -1.274,3.463c-0.85,0.914 -1.928,1.372 -3.234,1.372c-0.262,-0 -0.458,-0.022 -0.588,-0.066l-4.116,-0.522c-1.045,-0.131 -2.199,-0.196 -3.462,-0.196c-1.96,-0 -4.007,0.109 -6.141,0.326c-2.57,0.262 -4.247,0.392 -5.031,0.392c-1.393,0 -2.526,-0.435 -3.397,-1.306c-0.871,-0.871 -1.306,-2.026 -1.306,-3.463c-0,-1.263 0.337,-2.297 1.012,-3.103c0.675,-0.806 1.535,-1.208 2.581,-1.208c0.348,-0 0.86,0.076 1.535,0.228c0.675,0.153 1.187,0.229 1.535,0.229Zm50.304,-31.162l11.498,27.961l-0,-19.338c-0,-2.918 -0.567,-4.377 -1.699,-4.377c-0.305,0 -0.751,0.076 -1.339,0.229c-0.588,0.152 -1.035,0.228 -1.339,0.228c-0.915,0 -1.688,-0.413 -2.32,-1.241c-0.631,-0.827 -0.947,-1.851 -0.947,-3.07c0,-1.437 0.414,-2.592 1.241,-3.463c0.828,-0.871 1.917,-1.306 3.267,-1.306c0.697,-0 1.894,0.109 3.593,0.326c1.699,0.218 3.201,0.327 4.508,0.327c1.176,0 2.548,-0.087 4.115,-0.261c2.352,-0.262 3.811,-0.392 4.377,-0.392c1.394,-0 2.527,0.435 3.398,1.306c0.871,0.871 1.306,2.026 1.306,3.463c0,1.219 -0.348,2.243 -1.045,3.07c-0.697,0.828 -1.546,1.241 -2.548,1.241c-0.392,0 -0.915,-0.076 -1.568,-0.228c-0.653,-0.153 -1.154,-0.229 -1.502,-0.229c-0.871,0 -1.438,0.545 -1.699,1.633c-0.087,0.436 -0.131,1.351 -0.131,2.744l0,26.589c0,2.875 -1.176,4.312 -3.527,4.312c-0.436,-0 -1.1,-0.033 -1.993,-0.098c-0.893,-0.065 -1.557,-0.098 -1.992,-0.098c-0.044,-0 -1.111,0.044 -3.202,0.131l-1.437,-0c-1.263,-0 -2.199,-0.305 -2.809,-0.915c-0.348,-0.348 -0.849,-1.285 -1.503,-2.809l-12.608,-28.745l-0,19.729c-0,2.962 0.566,4.443 1.698,4.443c0.305,-0 0.773,-0.076 1.405,-0.229c0.632,-0.152 1.1,-0.228 1.405,-0.228c0.914,-0 1.687,0.413 2.319,1.241c0.631,0.827 0.947,1.851 0.947,3.07c0,3.18 -1.524,4.769 -4.573,4.769c-0.871,0 -2.308,-0.13 -4.312,-0.392c-1.35,-0.174 -2.7,-0.261 -4.05,-0.261c-1.133,-0 -2.657,0.109 -4.573,0.327c-1.917,0.217 -3.136,0.326 -3.659,0.326c-3.179,0 -4.769,-1.589 -4.769,-4.769c0,-1.219 0.338,-2.243 1.013,-3.07c0.675,-0.828 1.513,-1.241 2.515,-1.241c0.392,-0 0.926,0.076 1.601,0.228c0.675,0.153 1.187,0.229 1.535,0.229c1.176,-0 1.764,-1.481 1.764,-4.443l-0,-18.096c-0,-2.918 -0.588,-4.377 -1.764,-4.377c-0.348,0 -0.86,0.076 -1.535,0.229c-0.675,0.152 -1.209,0.228 -1.601,0.228c-1.002,0 -1.84,-0.413 -2.515,-1.241c-0.675,-0.827 -1.013,-1.851 -1.013,-3.07c0,-1.437 0.436,-2.592 1.307,-3.463c0.871,-0.871 2.003,-1.306 3.397,-1.306c0.915,-0 2.243,0.109 3.985,0.326c1.742,0.218 3.114,0.327 4.116,0.327c0.827,0 2.243,-0.087 4.246,-0.261c0.915,-0.044 1.96,-0.131 3.136,-0.262c0.523,-0.087 1.089,-0.13 1.699,-0.13c1.176,-0 2.09,0.457 2.743,1.372c0.262,0.348 0.741,1.35 1.438,3.005Zm-127.066,3.854c-5.661,0 -8.492,4.617 -8.492,13.85c-0,4.399 0.544,7.665 1.633,9.799c1.35,2.657 3.615,3.985 6.794,3.985c5.618,0 8.428,-4.485 8.428,-13.457c-0,-4.965 -0.665,-8.569 -1.993,-10.812c-1.328,-2.243 -3.452,-3.365 -6.37,-3.365Z" />
</svg>