<?xml version="1.0" encoding="UTF-8" standalone="no"?><!DOCTYPE svg PUBLIC "-//W3C//DTD SVG 1.1//EN" "http://www.w3.org/Graphics/SVG/1.1/DTD/svg11.dtd"><svg width="100%" height="100%" viewBox="0 0 6  6" version="1.1" xmlns="http://www.w3.org/2000/svg" xmlns:xlink="http://www.w3.org/1999/xlink" xml:space="preserve" xmlns:serif="http://www.serif.com/" style="fill-rule:evenodd;clip-rule:evenodd;stroke-linejoin:round;stroke-miterlimit:2;"><path id="Light" d="M2.88,0.239c1.457,0 2.641,1.184 2.641,2.641c-0,1.457 -1.184,2.641 -2.641,2.641c-1.457,-0 -2.641,-1.184 -2.641,-2.641c0,-1.457 1.184,-2.641 2.641,-2.641Zm-0.483,2.982c-0.098,0 -0.174,-0.029 -0.228,-0.089c-0.053,-0.06 -0.08,-0.144 -0.08,-0.253c-0,-0.106 0.026,-0.189 0.08,-0.25c0.053,-0.06 0.127,-0.09 0.221,-0.09c0.098,-0 0.175,0.029 0.23,0.088c0.055,0.059 0.082,0.141 0.082,0.247c0,0.109 -0.026,0.194 -0.08,0.256c-0.053,0.061 -0.128,0.091 -0.225,0.091Zm0.645,-0.682c0.068,-0 0.125,0.023 0.17,0.069c0.006,-0.039 0.025,-0.058 0.058,-0.058c0.04,0 0.061,0.02 0.061,0.059c-0,0.006 -0.002,0.019 -0.004,0.038c-0.004,0.03 -0.006,0.049 -0.006,0.06c-0,0.011 0,0.02 0.002,0.026c0.001,0.021 0.002,0.032 0.002,0.035c-0,0.017 -0.008,0.031 -0.023,0.042c-0.015,0.011 -0.034,0.017 -0.057,0.017c-0.037,0 -0.06,-0.018 -0.068,-0.055c-0.008,-0.037 -0.019,-0.063 -0.033,-0.076c-0.015,-0.014 -0.038,-0.021 -0.07,-0.021c-0.042,-0 -0.074,0.019 -0.097,0.058c-0.023,0.04 -0.035,0.095 -0.035,0.167c0,0.061 0.011,0.108 0.034,0.142c0.022,0.034 0.053,0.051 0.092,0.051c0.026,0 0.046,-0.007 0.063,-0.022c0.017,-0.014 0.025,-0.033 0.025,-0.055c-0,-0.027 -0.012,-0.04 -0.034,-0.04l-0.006,-0c-0.003,0 -0.005,0.001 -0.007,0.001c-0.01,0.001 -0.016,0.002 -0.017,0.002c-0.013,-0 -0.024,-0.006 -0.033,-0.017c-0.009,-0.012 -0.014,-0.026 -0.014,-0.043c0,-0.019 0.007,-0.035 0.019,-0.046c0.013,-0.012 0.03,-0.018 0.051,-0.018c0.014,0 0.034,0.002 0.062,0.006c0.027,0.003 0.048,0.005 0.062,0.005c0.022,-0 0.045,-0.002 0.071,-0.005c0.021,-0.003 0.035,-0.004 0.043,-0.004c0.021,0 0.037,0.006 0.05,0.019c0.013,0.013 0.019,0.03 0.019,0.051c-0,0.019 -0.005,0.035 -0.014,0.047c-0.009,0.013 -0.02,0.019 -0.034,0.019l-0.023,-0.002c-0.018,0 -0.026,0.015 -0.026,0.044c-0,0.012 0,0.025 0.001,0.039l0.002,0.041c0,0.015 0.001,0.028 0.001,0.041c-0,0.044 -0.024,0.065 -0.072,0.065c-0.046,0 -0.068,-0.016 -0.068,-0.047l-0,-0.006c-0.045,0.036 -0.096,0.053 -0.153,0.053c-0.05,0 -0.096,-0.013 -0.14,-0.039c-0.044,-0.026 -0.077,-0.06 -0.097,-0.102c-0.025,-0.054 -0.038,-0.117 -0.038,-0.188c-0,-0.109 0.025,-0.195 0.075,-0.258c0.051,-0.064 0.119,-0.095 0.206,-0.095Zm-1.583,0.073l0.081,0.355l0.085,-0.34c0.007,-0.028 0.015,-0.048 0.023,-0.059c0.009,-0.01 0.021,-0.016 0.038,-0.016c0.014,0 0.036,0.002 0.065,0.005c0.029,0.003 0.051,0.005 0.066,0.005c0.015,-0 0.054,-0.003 0.115,-0.008c0.018,-0.001 0.031,-0.002 0.039,-0.002c0.022,0 0.039,0.007 0.052,0.019c0.013,0.013 0.019,0.03 0.019,0.052c0,0.018 -0.005,0.034 -0.015,0.046c-0.01,0.012 -0.023,0.018 -0.037,0.018c-0.006,0 -0.014,-0.001 -0.025,-0.003c-0.01,-0.002 -0.017,-0.004 -0.022,-0.004c-0.017,0 -0.026,0.022 -0.026,0.066l-0,0.268c-0,0.045 0.008,0.067 0.025,0.067c0.005,-0 0.013,-0.002 0.023,-0.004c0.011,-0.002 0.018,-0.003 0.024,-0.003c0.015,-0 0.027,0.006 0.037,0.018c0.011,0.012 0.016,0.028 0.016,0.046c0,0.022 -0.006,0.039 -0.019,0.052c-0.013,0.012 -0.03,0.019 -0.052,0.019c-0.012,-0 -0.033,-0.002 -0.062,-0.006c-0.019,-0.003 -0.039,-0.004 -0.058,-0.004c-0.013,-0 -0.031,0.002 -0.055,0.005c-0.024,0.003 -0.042,0.005 -0.054,0.005c-0.019,-0 -0.035,-0.007 -0.047,-0.02c-0.012,-0.013 -0.018,-0.03 -0.018,-0.051c-0,-0.04 0.013,-0.06 0.04,-0.06c0.004,-0 0.007,-0 0.008,0.001l0.007,-0c0.003,0 0.004,0.001 0.005,0.001c0.01,-0 0.017,-0.008 0.019,-0.022c0,-0.006 0.001,-0.017 0.001,-0.033l-0,-0.366l-0.135,0.478c-0.012,0.041 -0.031,0.062 -0.058,0.062l-0.062,-0c-0.026,-0 -0.044,-0.018 -0.053,-0.055l-0.129,-0.485l-0,0.366c-0,0.031 0.003,0.048 0.008,0.052c0.002,0.002 0.006,0.003 0.011,0.003c0.001,-0 0.003,-0.001 0.006,-0.001l0.006,-0c0.002,-0.001 0.005,-0.001 0.008,-0.001c0.026,-0 0.039,0.019 0.039,0.059c0,0.022 -0.006,0.039 -0.017,0.052c-0.012,0.013 -0.027,0.02 -0.047,0.02c-0.009,-0 -0.021,-0.001 -0.035,-0.003c-0.018,-0.003 -0.029,-0.004 -0.034,-0.005c-0.013,-0.001 -0.029,-0.002 -0.046,-0.002c-0.022,-0 -0.041,0.001 -0.056,0.003c-0.04,0.005 -0.06,0.008 -0.06,0.008c-0.02,-0 -0.036,-0.007 -0.049,-0.021c-0.013,-0.013 -0.02,-0.03 -0.02,-0.051c0,-0.019 0.005,-0.034 0.015,-0.046c0.01,-0.012 0.023,-0.018 0.039,-0.018c0.005,-0 0.012,0.001 0.022,0.003c0.01,0.002 0.018,0.004 0.023,0.004c0.013,-0 0.021,-0.009 0.024,-0.026c0.002,-0.006 0.002,-0.02 0.002,-0.041l0,-0.268c0,-0.021 -0,-0.034 -0.002,-0.04c-0.003,-0.017 -0.011,-0.026 -0.024,-0.026c-0.005,0 -0.013,0.002 -0.023,0.004c-0.01,0.002 -0.018,0.003 -0.023,0.003c-0.015,0 -0.028,-0.006 -0.038,-0.018c-0.01,-0.012 -0.015,-0.028 -0.015,-0.046c0,-0.047 0.024,-0.071 0.072,-0.071c0.016,0 0.041,0.002 0.078,0.005c0.036,0.003 0.063,0.005 0.081,0.005c0.029,-0 0.06,-0.002 0.092,-0.006c0.021,-0.002 0.038,-0.004 0.05,-0.004c0.016,0 0.028,0.004 0.034,0.012c0.006,0.008 0.013,0.024 0.018,0.048Zm2.078,0.469c0.013,-0 0.021,-0.009 0.025,-0.026c0.001,-0.006 0.002,-0.02 0.002,-0.041l-0,-0.268c-0,-0.021 -0.001,-0.034 -0.002,-0.04c-0.004,-0.017 -0.012,-0.026 -0.025,-0.026c-0.005,0 -0.012,0.002 -0.022,0.004c-0.01,0.002 -0.018,0.003 -0.024,0.003c-0.015,0 -0.028,-0.006 -0.038,-0.018c-0.01,-0.012 -0.015,-0.028 -0.015,-0.046c0,-0.022 0.007,-0.039 0.019,-0.052c0.013,-0.012 0.03,-0.019 0.051,-0.019c0.01,0 0.033,0.002 0.068,0.006c0.024,0.003 0.047,0.004 0.07,0.004c0.018,-0 0.044,-0.002 0.078,-0.005c0.034,-0.003 0.057,-0.005 0.068,-0.005c0.047,0 0.071,0.024 0.071,0.071c-0,0.018 -0.005,0.034 -0.015,0.046c-0.01,0.012 -0.023,0.018 -0.038,0.018c-0.005,0 -0.013,-0.001 -0.023,-0.003c-0.01,-0.002 -0.018,-0.004 -0.023,-0.004c-0.018,0 -0.027,0.022 -0.027,0.066l0,0.268c0,0.045 0.009,0.067 0.027,0.067c0.005,-0 0.013,-0.002 0.023,-0.004c0.01,-0.002 0.018,-0.003 0.023,-0.003c0.015,-0 0.028,0.006 0.038,0.018c0.01,0.012 0.015,0.028 0.015,0.046c-0,0.021 -0.007,0.038 -0.019,0.051c-0.013,0.014 -0.029,0.021 -0.048,0.021c-0.004,-0 -0.007,-0.001 -0.009,-0.001l-0.061,-0.008c-0.016,-0.002 -0.033,-0.003 -0.052,-0.003c-0.029,0 -0.059,0.002 -0.091,0.005c-0.038,0.004 -0.063,0.006 -0.075,0.006c-0.02,-0 -0.037,-0.007 -0.05,-0.02c-0.013,-0.013 -0.02,-0.03 -0.02,-0.051c0,-0.019 0.005,-0.034 0.015,-0.046c0.01,-0.012 0.023,-0.018 0.039,-0.018c0.005,-0 0.013,0.001 0.023,0.003c0.01,0.002 0.017,0.004 0.022,0.004Zm0.748,-0.464l0.171,0.416l-0,-0.287c-0,-0.044 -0.008,-0.066 -0.025,-0.066c-0.005,0 -0.011,0.002 -0.02,0.004c-0.009,0.002 -0.016,0.003 -0.02,0.003c-0.014,0 -0.025,-0.006 -0.035,-0.018c-0.009,-0.012 -0.014,-0.028 -0.014,-0.046c0,-0.021 0.006,-0.038 0.019,-0.051c0.012,-0.013 0.028,-0.02 0.048,-0.02c0.011,0 0.028,0.002 0.054,0.005c0.025,0.003 0.047,0.005 0.067,0.005c0.017,-0 0.038,-0.001 0.061,-0.004c0.035,-0.004 0.057,-0.006 0.065,-0.006c0.021,0 0.037,0.007 0.05,0.02c0.013,0.013 0.02,0.03 0.02,0.051c-0,0.018 -0.005,0.034 -0.016,0.046c-0.01,0.012 -0.023,0.018 -0.038,0.018c-0.005,0 -0.013,-0.001 -0.023,-0.003c-0.01,-0.002 -0.017,-0.004 -0.022,-0.004c-0.013,0 -0.022,0.009 -0.025,0.025c-0.002,0.006 -0.002,0.02 -0.002,0.041l-0,0.395c-0,0.042 -0.018,0.064 -0.053,0.064c-0.006,-0 -0.016,-0.001 -0.029,-0.002c-0.014,-0.001 -0.024,-0.001 -0.03,-0.001c-0.001,-0 -0.017,0.001 -0.048,0.002l-0.021,-0c-0.019,-0 -0.033,-0.005 -0.042,-0.014c-0.005,-0.005 -0.012,-0.019 -0.022,-0.042l-0.187,-0.427l-0,0.293c-0,0.045 0.008,0.067 0.025,0.067c0.004,-0 0.011,-0.002 0.021,-0.004c0.009,-0.002 0.016,-0.003 0.021,-0.003c0.013,-0 0.025,0.006 0.034,0.018c0.009,0.012 0.014,0.028 0.014,0.046c0,0.047 -0.023,0.071 -0.068,0.071c-0.013,-0 -0.034,-0.002 -0.064,-0.006c-0.02,-0.003 -0.04,-0.004 -0.06,-0.004c-0.017,-0 -0.04,0.002 -0.068,0.005c-0.029,0.003 -0.047,0.005 -0.055,0.005c-0.047,-0 -0.07,-0.024 -0.07,-0.071c-0,-0.018 0.005,-0.034 0.015,-0.046c0.01,-0.012 0.022,-0.018 0.037,-0.018c0.006,-0 0.014,0.001 0.024,0.003c0.01,0.002 0.017,0.004 0.023,0.004c0.017,-0 0.026,-0.022 0.026,-0.067l-0,-0.268c-0,-0.044 -0.009,-0.066 -0.026,-0.066c-0.006,0 -0.013,0.002 -0.023,0.004c-0.01,0.002 -0.018,0.003 -0.024,0.003c-0.015,0 -0.027,-0.006 -0.037,-0.018c-0.01,-0.012 -0.015,-0.028 -0.015,-0.046c-0,-0.021 0.006,-0.038 0.019,-0.051c0.013,-0.013 0.03,-0.02 0.051,-0.02c0.013,0 0.033,0.002 0.059,0.005c0.026,0.003 0.046,0.005 0.061,0.005c0.012,-0 0.033,-0.001 0.063,-0.004c0.014,-0.001 0.029,-0.002 0.047,-0.004c0.007,-0.001 0.016,-0.002 0.025,-0.002c0.017,0 0.031,0.007 0.041,0.021c0.004,0.005 0.011,0.02 0.021,0.044Zm-1.889,0.058c-0.084,-0 -0.126,0.068 -0.126,0.205c0,0.066 0.008,0.114 0.024,0.146c0.021,0.04 0.054,0.059 0.101,0.059c0.084,0 0.126,-0.066 0.126,-0.2c-0,-0.073 -0.01,-0.127 -0.03,-0.16c-0.02,-0.034 -0.051,-0.05 -0.095,-0.05Z" style="fill:#00416a;"/></svg>