<svg width="100" height="100" class="svg-icon" viewBox="0 0 100 100"
  style="fill-rule:evenodd;clip-rule:evenodd;stroke-linejoin:round;stroke-miterlimit:2;"
  preserveAspectRatio="xMidYMid meet">
  <path class="fill-color"
    d="M50,7.359c23.534,-0 42.641,19.107 42.641,42.641c0,23.534 -19.107,42.641 -42.641,42.641c-23.534,0 -42.641,-19.107 -42.641,-42.641c-0,-23.534 19.107,-42.641 42.641,-42.641Zm-7.792,48.152c-1.589,0 -2.817,-0.481 -3.685,-1.442c-0.868,-0.962 -1.301,-2.326 -1.301,-4.093c-0,-1.703 0.431,-3.044 1.293,-4.021c0.862,-0.978 2.051,-1.466 3.567,-1.466c1.589,-0 2.828,0.475 3.716,1.427c0.889,0.951 1.333,2.278 1.333,3.982c-0,1.767 -0.431,3.144 -1.294,4.132c-0.862,0.987 -2.072,1.481 -3.629,1.481Zm10.41,-11.022c1.098,-0 2.013,0.371 2.744,1.113c0.094,-0.617 0.408,-0.925 0.941,-0.925c0.648,-0 0.972,0.314 0.972,0.941c0,0.104 -0.021,0.313 -0.063,0.627c-0.062,0.47 -0.094,0.789 -0.094,0.956c0,0.188 0.011,0.33 0.032,0.424c0.021,0.334 0.031,0.522 0.031,0.564c-0,0.272 -0.12,0.499 -0.361,0.682c-0.24,0.183 -0.548,0.274 -0.925,0.274c-0.606,0 -0.972,-0.297 -1.097,-0.893c-0.126,-0.596 -0.306,-1.006 -0.541,-1.231c-0.235,-0.225 -0.609,-0.337 -1.121,-0.337c-0.68,-0 -1.205,0.316 -1.576,0.948c-0.371,0.633 -0.557,1.529 -0.557,2.689c0,0.983 0.181,1.749 0.541,2.297c0.361,0.549 0.86,0.824 1.498,0.824c0.407,-0 0.744,-0.118 1.011,-0.353c0.267,-0.235 0.4,-0.531 0.4,-0.886c-0,-0.439 -0.183,-0.659 -0.549,-0.659l-0.094,0c-0.042,0.011 -0.078,0.016 -0.11,0.016c-0.167,0.021 -0.261,0.031 -0.282,0.031c-0.209,0 -0.387,-0.091 -0.533,-0.274c-0.146,-0.183 -0.22,-0.41 -0.22,-0.682c0,-0.314 0.105,-0.564 0.314,-0.753c0.209,-0.188 0.481,-0.282 0.815,-0.282c0.22,0 0.552,0.029 0.996,0.086c0.444,0.058 0.781,0.087 1.011,0.087c0.345,-0 0.727,-0.026 1.145,-0.079c0.334,-0.042 0.564,-0.062 0.69,-0.062c0.334,-0 0.603,0.101 0.807,0.305c0.204,0.204 0.306,0.478 0.306,0.823c-0,0.304 -0.073,0.557 -0.22,0.761c-0.146,0.204 -0.329,0.306 -0.548,0.306l-0.377,-0.032c-0.282,0 -0.423,0.235 -0.423,0.706c-0,0.198 0.005,0.407 0.016,0.627l0.031,0.674c0.01,0.23 0.016,0.45 0.016,0.659c-0,0.7 -0.387,1.05 -1.161,1.05c-0.731,0 -1.097,-0.256 -1.097,-0.768l-0,-0.094c-0.721,0.575 -1.542,0.862 -2.462,0.862c-0.805,0 -1.562,-0.211 -2.273,-0.635c-0.711,-0.423 -1.228,-0.975 -1.552,-1.654c-0.418,-0.868 -0.628,-1.876 -0.628,-3.026c0,-1.756 0.408,-3.146 1.223,-4.171c0.816,-1.024 1.924,-1.536 3.324,-1.536Zm-25.556,1.191l1.301,5.723l1.364,-5.487c0.115,-0.46 0.243,-0.776 0.384,-0.949c0.141,-0.172 0.342,-0.259 0.604,-0.259c0.23,0 0.58,0.026 1.05,0.079c0.471,0.052 0.826,0.078 1.066,0.078c0.251,0 0.873,-0.042 1.866,-0.125c0.283,-0.021 0.492,-0.032 0.627,-0.032c0.345,0 0.622,0.102 0.831,0.306c0.209,0.204 0.314,0.484 0.314,0.839c0,0.293 -0.081,0.538 -0.243,0.737c-0.162,0.198 -0.363,0.298 -0.604,0.298c-0.094,-0 -0.224,-0.019 -0.392,-0.055c-0.167,-0.037 -0.287,-0.055 -0.36,-0.055c-0.282,-0 -0.424,0.35 -0.424,1.05l0,4.344c0,0.71 0.136,1.066 0.408,1.066c0.084,-0 0.209,-0.019 0.376,-0.055c0.168,-0.037 0.293,-0.055 0.377,-0.055c0.24,-0 0.444,0.099 0.611,0.298c0.167,0.198 0.251,0.444 0.251,0.737c0,0.355 -0.105,0.635 -0.314,0.839c-0.209,0.203 -0.486,0.305 -0.831,0.305c-0.198,0 -0.533,-0.031 -1.003,-0.094c-0.314,-0.042 -0.627,-0.062 -0.941,-0.062c-0.198,-0 -0.491,0.026 -0.878,0.078c-0.387,0.052 -0.679,0.078 -0.878,0.078c-0.313,0 -0.567,-0.104 -0.76,-0.313c-0.194,-0.209 -0.29,-0.486 -0.29,-0.831c-0,-0.648 0.214,-0.972 0.643,-0.972c0.062,-0 0.109,0.005 0.141,0.015l0.109,0c0.042,0.011 0.068,0.016 0.079,0.016c0.167,0 0.266,-0.115 0.298,-0.345c0.01,-0.104 0.015,-0.282 0.015,-0.533l0,-5.911l-2.179,7.714c-0.188,0.669 -0.497,1.004 -0.925,1.004l-1.004,-0c-0.418,-0 -0.705,-0.298 -0.862,-0.894l-2.085,-7.824l-0,5.911c-0,0.491 0.047,0.768 0.141,0.831c0.031,0.031 0.089,0.047 0.172,0.047c0.021,0 0.053,-0.005 0.094,-0.016l0.095,0c0.031,-0.01 0.078,-0.015 0.141,-0.015c0.418,-0 0.627,0.318 0.627,0.956c-0,0.355 -0.094,0.638 -0.282,0.847c-0.189,0.209 -0.439,0.313 -0.753,0.313c-0.146,0 -0.334,-0.015 -0.564,-0.047c-0.293,-0.042 -0.476,-0.068 -0.549,-0.078c-0.22,-0.021 -0.471,-0.031 -0.753,-0.031c-0.355,-0 -0.653,0.015 -0.893,0.047c-0.649,0.083 -0.973,0.125 -0.973,0.125c-0.324,0 -0.59,-0.11 -0.799,-0.329c-0.209,-0.22 -0.314,-0.497 -0.314,-0.831c0,-0.303 0.081,-0.552 0.243,-0.745c0.162,-0.193 0.369,-0.29 0.62,-0.29c0.083,-0 0.206,0.018 0.368,0.055c0.162,0.036 0.285,0.055 0.368,0.055c0.21,-0 0.34,-0.136 0.392,-0.408c0.021,-0.104 0.032,-0.324 0.032,-0.658l-0,-4.344c-0,-0.334 -0.011,-0.548 -0.032,-0.642c-0.052,-0.272 -0.182,-0.408 -0.392,-0.408c-0.083,-0 -0.206,0.018 -0.368,0.055c-0.162,0.036 -0.29,0.055 -0.384,0.055c-0.241,-0 -0.442,-0.1 -0.604,-0.298c-0.162,-0.199 -0.243,-0.444 -0.243,-0.737c0,-0.763 0.387,-1.145 1.16,-1.145c0.251,0 0.669,0.026 1.255,0.079c0.585,0.052 1.024,0.078 1.317,0.078c0.47,0 0.961,-0.031 1.474,-0.094c0.345,-0.042 0.616,-0.063 0.815,-0.063c0.261,0 0.444,0.063 0.549,0.188c0.104,0.126 0.204,0.387 0.298,0.784Zm33.553,7.558c0.209,-0 0.339,-0.136 0.392,-0.408c0.021,-0.104 0.031,-0.324 0.031,-0.658l0,-4.344c0,-0.334 -0.01,-0.548 -0.031,-0.642c-0.053,-0.272 -0.183,-0.408 -0.392,-0.408c-0.084,-0 -0.207,0.018 -0.369,0.055c-0.162,0.036 -0.29,0.055 -0.384,0.055c-0.24,-0 -0.442,-0.1 -0.604,-0.298c-0.162,-0.199 -0.243,-0.444 -0.243,-0.737c0,-0.355 0.102,-0.635 0.306,-0.839c0.204,-0.204 0.478,-0.306 0.823,-0.306c0.157,0 0.523,0.032 1.098,0.094c0.387,0.042 0.763,0.063 1.129,0.063c0.292,0 0.713,-0.026 1.262,-0.078c0.549,-0.053 0.912,-0.079 1.09,-0.079c0.763,0 1.144,0.382 1.144,1.145c0,0.293 -0.081,0.538 -0.243,0.737c-0.162,0.198 -0.363,0.298 -0.604,0.298c-0.083,-0 -0.209,-0.019 -0.376,-0.055c-0.167,-0.037 -0.292,-0.055 -0.376,-0.055c-0.282,-0 -0.423,0.35 -0.423,1.05l-0,4.344c-0,0.71 0.141,1.066 0.423,1.066c0.084,-0 0.209,-0.019 0.376,-0.055c0.167,-0.037 0.293,-0.055 0.376,-0.055c0.241,-0 0.442,0.099 0.604,0.298c0.162,0.198 0.243,0.444 0.243,0.737c0,0.334 -0.102,0.611 -0.306,0.831c-0.203,0.219 -0.462,0.329 -0.776,0.329c-0.062,0 -0.109,-0.005 -0.141,-0.016l-0.988,-0.125c-0.25,-0.031 -0.527,-0.047 -0.831,-0.047c-0.47,-0 -0.961,0.026 -1.473,0.078c-0.617,0.063 -1.02,0.094 -1.208,0.094c-0.334,0 -0.606,-0.104 -0.815,-0.313c-0.209,-0.209 -0.314,-0.486 -0.314,-0.831c0,-0.303 0.081,-0.552 0.243,-0.745c0.162,-0.193 0.369,-0.29 0.62,-0.29c0.083,-0 0.206,0.018 0.368,0.055c0.162,0.036 0.285,0.055 0.369,0.055Zm12.073,-7.479l2.759,6.71l0,-4.641c0,-0.7 -0.136,-1.05 -0.408,-1.05c-0.073,-0 -0.18,0.018 -0.321,0.055c-0.141,0.036 -0.248,0.055 -0.321,0.055c-0.22,-0 -0.405,-0.1 -0.557,-0.298c-0.152,-0.199 -0.227,-0.444 -0.227,-0.737c-0,-0.345 0.099,-0.622 0.297,-0.831c0.199,-0.209 0.46,-0.314 0.784,-0.314c0.168,0 0.455,0.026 0.863,0.079c0.407,0.052 0.768,0.078 1.082,0.078c0.282,0 0.611,-0.021 0.987,-0.063c0.565,-0.062 0.915,-0.094 1.051,-0.094c0.334,0 0.606,0.105 0.815,0.314c0.209,0.209 0.314,0.486 0.314,0.831c-0,0.293 -0.084,0.538 -0.251,0.737c-0.167,0.198 -0.371,0.298 -0.612,0.298c-0.094,-0 -0.219,-0.019 -0.376,-0.055c-0.157,-0.037 -0.277,-0.055 -0.36,-0.055c-0.21,-0 -0.345,0.131 -0.408,0.392c-0.021,0.104 -0.031,0.324 -0.031,0.658l-0,6.382c-0,0.69 -0.283,1.035 -0.847,1.035c-0.105,-0 -0.264,-0.008 -0.478,-0.024c-0.215,-0.016 -0.374,-0.023 -0.479,-0.023c-0.01,-0 -0.266,0.01 -0.768,0.031l-0.345,-0c-0.303,-0 -0.528,-0.073 -0.674,-0.22c-0.084,-0.083 -0.204,-0.308 -0.361,-0.674l-3.026,-6.899l0,4.736c0,0.71 0.136,1.066 0.408,1.066c0.073,-0 0.186,-0.019 0.337,-0.055c0.152,-0.037 0.264,-0.055 0.337,-0.055c0.22,-0 0.405,0.099 0.557,0.298c0.151,0.198 0.227,0.444 0.227,0.737c0,0.763 -0.366,1.144 -1.097,1.144c-0.209,0 -0.554,-0.031 -1.035,-0.094c-0.324,-0.042 -0.648,-0.062 -0.972,-0.062c-0.272,-0 -0.638,0.026 -1.098,0.078c-0.46,0.052 -0.752,0.078 -0.878,0.078c-0.763,0 -1.144,-0.381 -1.144,-1.144c-0,-0.293 0.081,-0.539 0.243,-0.737c0.162,-0.199 0.363,-0.298 0.603,-0.298c0.094,-0 0.222,0.018 0.384,0.055c0.162,0.036 0.285,0.055 0.369,0.055c0.282,-0 0.423,-0.356 0.423,-1.066l0,-4.344c0,-0.7 -0.141,-1.05 -0.423,-1.05c-0.084,-0 -0.207,0.018 -0.369,0.055c-0.162,0.036 -0.29,0.055 -0.384,0.055c-0.24,-0 -0.441,-0.1 -0.603,-0.298c-0.162,-0.199 -0.243,-0.444 -0.243,-0.737c-0,-0.345 0.104,-0.622 0.313,-0.831c0.209,-0.209 0.481,-0.314 0.815,-0.314c0.22,0 0.539,0.026 0.957,0.079c0.418,0.052 0.747,0.078 0.988,0.078c0.198,0 0.538,-0.021 1.019,-0.063c0.219,-0.01 0.47,-0.031 0.752,-0.062c0.126,-0.021 0.262,-0.032 0.408,-0.032c0.282,0 0.502,0.11 0.659,0.33c0.062,0.083 0.177,0.324 0.345,0.721Zm-30.496,0.925c-1.359,-0 -2.038,1.108 -2.038,3.324c-0,1.056 0.13,1.84 0.392,2.352c0.324,0.637 0.867,0.956 1.63,0.956c1.349,0 2.023,-1.077 2.023,-3.23c-0,-1.191 -0.16,-2.056 -0.478,-2.595c-0.319,-0.538 -0.829,-0.807 -1.529,-0.807Z" />
</svg>